<?xml version="1.0" encoding="UTF-8" standalone="no"?>
<!-- Created with Inkscape (http://www.inkscape.org/) -->

<svg
   width="123.80478mm"
   height="123.82821mm"
   viewBox="0 0 123.80478 123.82821"
   version="1.1"
   id="svg1"
   xml:space="preserve"
   xmlns="http://www.w3.org/2000/svg"
   xmlns:svg="http://www.w3.org/2000/svg"><defs
     id="defs1" /><g
     id="layer1"
     transform="translate(-11.869854,-19.492399)"><g
       fill="#000000"
       id="g2"
       transform="matrix(0.26458333,0,0,0.26458333,6.0287361,13.67225)"><path
         id="path1"
         d="m 258.19945,21.999681 c -154.8,0 -155.69922,0.09961 -160.199216,2.09961 l -4.5,2 7.400386,3.5 c 19.8,9.2 35.99961,26.600391 43.59961,46.900391 5.7,15.1 5.5,5.800391 5.5,209.400398 V 473.5993 l 2.59961,5.20117 c 2,4.1 3.70079,5.89922 7.80079,8.19922 5.8,3.4 12.4,3.89961 18,1.59961 1.8,-0.8 17.6,-13.6 35,-28.5 17.4,-15 32.09961,-26.89961 32.59961,-26.59961 0.5,0.3 14.49922,12.29961 31.19922,26.59961 16.7,14.4 32.10078,26.9 34.30078,28 2.2,1 6,1.90039 8.5,1.90039 2.5,0 6.3,-0.90039 8.5,-1.90039 2.2,-1.1 17.60078,-13.6 34.30078,-28 16.7,-14.3 30.69922,-26.29961 31.19922,-26.59961 0.5,-0.3 15.19961,11.59961 32.59961,26.59961 17.4,14.9 33.2,27.7 35,28.5 5.3,2.2 11.5,1.69961 17.5,-1.40039 4.3,-2.2 5.89961,-3.79961 8.09961,-8.09961 l 2.80078,-5.29883 v -188 c 0,-167.3 -0.19961,-188.700007 -1.59961,-195.500007 -5.8,-28.4 -25.20117,-51.700782 -51.70117,-62.300782 -15.7,-6.3 -7.90001,-6 -178.50001,-6 z m 55.18751,68.664064 c 8.8802,0.07596 17.81969,1.111054 26.66406,3.136718 14.48506,3.315858 29.19395,9.847817 41.73437,18.548827 28.59616,19.82035 47.44483,51.00882 51.65821,85.51367 2.94189,24.0836 -1.29691,48.36657 -12.2168,69.95704 -12.01687,23.73455 -31.23879,42.70705 -55.22266,54.47461 -13.53767,6.65664 -27.34949,10.57214 -42.18359,11.94336 -5.13584,0.49862 -13.91231,0.67268 -18.375,0.39843 -17.60147,-1.09697 -33.60777,-5.4611 -48.89063,-13.31445 -45.6242,-23.43538 -71.72603,-72.74915 -65.44336,-123.58399 2.94189,-23.65976 12.34134,-45.15024 27.89844,-63.79882 5.01118,-6.03337 13.36231,-13.88623 20.09375,-18.94727 21.52191,-16.155455 47.6426,-24.556013 74.28321,-24.328125 z m -1.10938,20.300785 c -3.79578,0 -7.59206,0.13786 -10.09766,0.41211 -18.3494,1.94463 -34.92877,8.27622 -49.61328,18.92187 -13.2385,9.5736 -24.0837,22.41303 -31.48828,37.19727 -4.96132,9.89771 -8.52722,21.66547 -9.89844,32.66015 -0.14958,1.1967 -0.12431,1.27309 0.54883,1.57227 0.59835,0.27424 8.10346,3.43922 45.625,19.2207 l 5.7832,2.41797 2.94141,-1.44531 c 3.46545,-1.74519 6.78191,-2.6682 10.42188,-2.89258 l 2.49414,-0.14844 11.49218,-16.10547 11.49415,-16.10546 0.17382,-2.21875 c 1.14684,-15.7067 13.08892,-29.07029 28.6211,-32.03711 3.76462,-0.69808 6.65622,-0.84755 10.04687,-0.52344 10.32154,1.02218 19.14862,5.95777 25.30664,14.16015 4.66215,6.23282 7.0293,13.41412 7.0293,21.36719 0.0249,5.73419 -1.04743,10.39599 -3.51562,15.45703 -3.98901,8.15252 -10.64528,14.35958 -18.84766,17.55079 -3.96407,1.54573 -8.55018,2.51757 -12.01563,2.51757 h -1.54687 l -15.2832,11.36914 c -8.40184,6.25775 -15.50552,11.59295 -15.80469,11.86719 -0.44876,0.3989 -0.54917,0.8728 -0.67383,2.76758 -0.59835,9.12484 -6.88114,18.09981 -15.48242,22.13867 -8.65115,4.03887 -18.72329,3.36539 -26.60157,-1.82031 -5.73418,-3.76462 -9.7733,-9.32336 -11.56835,-15.95508 l -0.44922,-1.66992 -2.01953,-0.87305 c -5.01119,-2.14409 -35.4776,-14.93348 -35.85157,-15.0332 -0.37397,-0.0997 -0.32411,0.29904 0.42383,3.06641 7.42951,28.09752 26.87698,51.95555 52.95508,65.01953 16.8286,8.45169 34.82821,11.89339 54.125,10.34765 14.55985,-1.14683 29.74347,-5.95858 42.5332,-13.46289 16.92833,-9.92264 31.0143,-24.93242 39.74024,-42.35937 4.33804,-8.65115 7.42921,-17.79957 9.09961,-26.84961 4.01393,-21.71513 1.0219,-43.7541 -8.60156,-63.375 -9.94758,-20.26912 -25.77846,-36.27589 -45.87305,-46.37305 -11.54317,-5.78405 -22.53816,-8.99988 -35.52735,-10.37109 -2.50559,-0.27425 -6.29992,-0.41211 -10.0957,-0.41211 z m 25.55469,52.29297 c -4.76187,-0.0249 -6.80754,0.37464 -10.24805,1.94531 -3.5901,1.67039 -7.45391,4.86107 -9.72266,8.02734 -1.54573,2.14409 -3.21552,5.83385 -3.88867,8.47656 -0.74793,3.06655 -0.77287,8.55191 0,11.36915 1.2715,4.68707 3.3906,8.32718 6.78125,11.66796 3.44052,3.36572 7.92667,5.7099 12.63868,6.60743 2.61778,0.49862 7.23159,0.32307 10.04882,-0.375 2.51806,-0.62329 6.18209,-2.31709 8.32618,-3.83789 2.19395,-1.57067 5.2864,-4.96161 6.73242,-7.33008 1.39615,-2.34354 2.74218,-6.08477 3.16601,-8.77735 0.3989,-2.56792 0.14822,-7.35361 -0.5,-9.79687 -2.16902,-8.22732 -8.52544,-14.73482 -16.90234,-17.30274 -1.9945,-0.59835 -2.5673,-0.67382 -6.43164,-0.67382 z m 0.13476,5.88671 c 2.75569,0.0409 5.56162,0.70812 8.2168,2.0918 11.91714,6.20788 13.03811,23.0876 2.06836,30.91602 -3.71476,2.66764 -7.80304,3.73978 -12.58984,3.29101 -6.33254,-0.59835 -12.44013,-5.11185 -14.8086,-10.9707 -1.39615,-3.39065 -1.77091,-7.85349 -0.99804,-11.24414 2.01943,-8.69478 9.84428,-14.20669 18.11132,-14.08399 z m -58.59179,55.97461 c -2.27902,-0.11744 -4.58934,0.12514 -6.81446,0.74219 -0.7978,0.22438 -1.49506,0.47254 -1.54492,0.57227 -0.0499,0.0997 2.7664,1.39624 6.30664,2.86719 8.75087,3.68982 9.52377,4.09017 11.76758,6.33398 3.86435,3.88928 5.33652,9.14828 3.99023,14.33398 -1.69532,6.63172 -7.15665,11.14603 -13.96289,11.54493 -3.29092,0.19945 -4.91032,-0.27525 -13.1875,-3.76563 -3.76462,-1.5956 -6.88177,-2.84283 -6.93164,-2.79297 -0.17452,0.17452 1.098,2.49459 2.07032,3.79102 3.41558,4.58735 8.22698,7.57892 13.76171,8.57617 1.96957,0.37397 7.18083,0.0988 9.1504,-0.47461 12.71494,-3.68983 19.14618,-17.70166 13.51171,-29.49414 -1.79505,-3.76462 -4.03846,-6.38107 -7.5039,-8.72461 -3.10083,-2.11916 -6.81492,-3.31402 -10.61328,-3.50977 z" /><path
         d="m 35.6,275.5 c -2.1,-0.7 -5.4,-2.8 -7.2,-4.6 -6.8,-6.6 -6.5,-2.4 -6.2,-95.4 l 0.3,-84 3.2,-6.8 c 8.1,-17.1 26.8,-27.1 44.9,-24 13.9,2.4 25.7,11.3 31.7,24 l 3.2,6.8 0.3,92.8 0.2,92.7 H 72.8 c -25.7,-0.1 -34.2,-0.4 -37.2,-1.5 z"
         id="path2" /></g></g></svg>
